<svg width="14" height="14" viewBox="0 0 14 14" fill="none" xmlns="http://www.w3.org/2000/svg">
<g id="icons">
<path id="Vector (Stroke)" fill-rule="evenodd" clip-rule="evenodd" d="M2.91666 2.33317C2.76195 2.33317 2.61357 2.39463 2.50418 2.50402C2.39478 2.61342 2.33332 2.76179 2.33332 2.9165V10.8415L3.67084 9.50402C3.78024 9.39463 3.92861 9.33317 4.08332 9.33317H11.0833C11.238 9.33317 11.3864 9.27171 11.4958 9.16232C11.6052 9.05292 11.6667 8.90455 11.6667 8.74984V2.9165C11.6667 2.76179 11.6052 2.61342 11.4958 2.50402C11.3864 2.39463 11.238 2.33317 11.0833 2.33317H2.91666ZM1.67922 1.67907C2.00741 1.35088 2.45253 1.1665 2.91666 1.1665H11.0833C11.5475 1.1665 11.9926 1.35088 12.3208 1.67907C12.6489 2.00726 12.8333 2.45237 12.8333 2.9165V8.74984C12.8333 9.21397 12.6489 9.65909 12.3208 9.98727C11.9926 10.3155 11.5475 10.4998 11.0833 10.4998H4.32495L2.16247 12.6623C1.99564 12.8291 1.74473 12.8791 1.52676 12.7888C1.30878 12.6985 1.16666 12.4858 1.16666 12.2498V2.9165C1.16666 2.45238 1.35103 2.00726 1.67922 1.67907Z" fill="#5A5A5A"/>
</g>
</svg>
