<svg width="20" height="20" viewBox="0 0 20 20" fill="none" xmlns="http://www.w3.org/2000/svg">
<g id="Component 2">
<path id="Vector (Stroke)" fill-rule="evenodd" clip-rule="evenodd" d="M1.6665 2.50008C1.6665 2.03984 2.0396 1.66675 2.49984 1.66675H8.33317C8.79341 1.66675 9.1665 2.03984 9.1665 2.50008V10.0001C9.1665 10.4603 8.79341 10.8334 8.33317 10.8334H2.49984C2.0396 10.8334 1.6665 10.4603 1.6665 10.0001V2.50008ZM3.33317 3.33341V9.16675H7.49984V3.33341H3.33317Z" fill="#333333"/>
<path id="Vector (Stroke)_2" fill-rule="evenodd" clip-rule="evenodd" d="M10.8335 2.50008C10.8335 2.03984 11.2066 1.66675 11.6668 1.66675H17.5002C17.9604 1.66675 18.3335 2.03984 18.3335 2.50008V6.66675C18.3335 7.12699 17.9604 7.50008 17.5002 7.50008H11.6668C11.2066 7.50008 10.8335 7.12699 10.8335 6.66675V2.50008ZM12.5002 3.33341V5.83342H16.6668V3.33341H12.5002Z" fill="#333333"/>
<path id="Vector (Stroke)_3" fill-rule="evenodd" clip-rule="evenodd" d="M10.8335 10.0001C10.8335 9.53984 11.2066 9.16675 11.6668 9.16675H17.5002C17.9604 9.16675 18.3335 9.53984 18.3335 10.0001V17.5001C18.3335 17.9603 17.9604 18.3334 17.5002 18.3334H11.6668C11.2066 18.3334 10.8335 17.9603 10.8335 17.5001V10.0001ZM12.5002 10.8334V16.6667H16.6668V10.8334H12.5002Z" fill="#333333"/>
<path id="Vector (Stroke)_4" fill-rule="evenodd" clip-rule="evenodd" d="M1.6665 13.3333C1.6665 12.8731 2.0396 12.5 2.49984 12.5H8.33317C8.79341 12.5 9.1665 12.8731 9.1665 13.3333V17.5C9.1665 17.9602 8.79341 18.3333 8.33317 18.3333H2.49984C2.0396 18.3333 1.6665 17.9602 1.6665 17.5V13.3333ZM3.33317 14.1667V16.6667H7.49984V14.1667H3.33317Z" fill="#333333"/>
</g>
</svg>
