<svg width="20" height="20" viewBox="0 0 20 20" fill="none" xmlns="http://www.w3.org/2000/svg">
<g id="Component 2">
<path id="Vector (Stroke)" fill-rule="evenodd" clip-rule="evenodd" d="M3.3335 3.33341C3.11248 3.33341 2.90052 3.42121 2.74424 3.57749C2.58796 3.73377 2.50016 3.94573 2.50016 4.16675V15.8334C2.50016 16.0544 2.58796 16.2664 2.74424 16.4227C2.90052 16.579 3.11248 16.6667 3.3335 16.6667H14.1668C14.2028 16.6667 14.2388 16.6691 14.2745 16.6737C14.4391 16.6952 14.6064 16.667 14.7548 16.5927C14.8872 16.5265 14.9993 16.4264 15.0799 16.303L17.131 10.8334H7.23102L5.77389 14.4762C5.60297 14.9036 5.11799 15.1114 4.69067 14.9405C4.26335 14.7696 4.0555 14.2846 4.22643 13.8573L5.8931 9.69059C6.01965 9.37421 6.32608 9.16675 6.66683 9.16675H15.8335V6.66675C15.8335 6.44573 15.7457 6.23377 15.5894 6.07749C15.4331 5.92121 15.2212 5.83342 15.0002 5.83342H9.16683C8.8882 5.83342 8.62801 5.69416 8.47345 5.46233L7.05418 3.33341H3.3335ZM17.5002 9.16675V6.66675C17.5002 6.00371 17.2368 5.36782 16.7679 4.89898C16.2991 4.43014 15.6632 4.16675 15.0002 4.16675H9.61282L8.19354 2.03783C8.03898 1.806 7.77879 1.66675 7.50016 1.66675H3.3335C2.67045 1.66675 2.03457 1.93014 1.56573 2.39898C1.09689 2.86782 0.833496 3.50371 0.833496 4.16675V15.8334C0.833496 16.4965 1.09689 17.1323 1.56573 17.6012C2.03457 18.07 2.67045 18.3334 3.3335 18.3334H14.1183C14.5929 18.3838 15.0725 18.2973 15.5002 18.0835C15.9456 17.8607 16.3143 17.5101 16.5592 17.0764C16.5804 17.0389 16.5986 16.9997 16.6138 16.9594L19.1138 10.2927C19.2097 10.0368 19.1741 9.75006 19.0184 9.52542C18.8628 9.30077 18.6068 9.16675 18.3335 9.16675H17.5002Z" fill="#333333"/>
</g>
</svg>
